<?xml version="1.0" standalone="no"?>
<!DOCTYPE svg PUBLIC "-//W3C//DTD SVG 20010904//EN"
 "http://www.w3.org/TR/2001/REC-SVG-20010904/DTD/svg10.dtd">
<svg version="1.0" xmlns="http://www.w3.org/2000/svg"
 width="333.000000pt" height="216.000000pt" viewBox="0 0 333.000000 216.000000"
 preserveAspectRatio="xMidYMid meet">

<g transform="translate(0.000000,216.000000) scale(0.100000,-0.100000)"
fill="#000000" stroke="none">
<path d="M2600 1080 l0 -460 80 0 80 0 0 460 0 460 -80 0 -80 0 0 -460z"/>
<path d="M352 1469 c-141 -27 -258 -134 -311 -284 -10 -29 -15 -112 -18 -302
l-5 -263 81 0 81 0 0 105 0 105 275 0 275 0 0 -105 0 -105 80 0 81 0 -3 406
-3 406 -28 24 c-28 24 -29 24 -245 23 -119 -1 -236 -5 -260 -10z m378 -314 l0
-165 -276 0 -277 0 5 79 c7 125 58 193 173 233 39 14 85 17 213 18 l162 0 0
-165z"/>
<path d="M2060 1375 l0 -105 -100 0 -100 0 0 -80 0 -80 100 0 100 0 0 -245 0
-245 80 0 80 0 0 245 0 245 135 0 135 0 0 80 0 80 -135 0 -135 0 0 105 0 105
-80 0 -80 0 0 -105z"/>
<path d="M1032 1053 c4 -202 6 -222 27 -271 29 -64 85 -115 158 -142 48 -18
78 -20 273 -20 205 0 221 1 239 19 29 29 32 62 29 356 l-3 270 -77 3 -78 3 -2
-248 -3 -248 -157 0 c-143 0 -159 2 -185 21 -57 41 -63 70 -63 282 l0 192 -81
0 -81 0 4 -217z"/>
<path d="M2820 1190 l0 -80 153 0 c136 0 156 -2 170 -18 15 -16 17 -48 17
-245 l0 -227 80 0 80 0 0 238 c0 228 -1 239 -24 288 -46 99 -113 124 -328 124
l-148 0 0 -80z"/>
</g>
</svg>
